<?xml version="1.0" encoding="utf-8"?>
<!-- Generator: Adobe Illustrator 25.0.1, SVG Export Plug-In . SVG Version: 6.00 Build 0)  -->
<svg version="1.1" id="Layer_1" xmlns="http://www.w3.org/2000/svg" xmlns:xlink="http://www.w3.org/1999/xlink" x="0px" y="0px"
	 viewBox="0 0 1214.1 449.9" style="enable-background:new 0 0 1214.1 449.9;" xml:space="preserve">
<style type="text/css">
	.st0{fill:#991B1E;}
</style>
<g id="Hochschule_Offenburg">
	<path d="M667,431.5h-5.7v-10.3h-10.5v10.3h-5.7v-25.2h5.7v10.1h10.4v-10.1h5.8V431.5z"/>
	<path d="M689.4,432c-3.3,0.1-6.5-1.2-8.8-3.5c-2.3-2.5-3.6-5.8-3.4-9.2c-0.2-3.6,1.1-7,3.5-9.7c2.4-2.5,5.7-3.8,9.2-3.7
		c3.3-0.1,6.5,1.2,8.7,3.5c2.3,2.5,3.5,5.9,3.3,9.3c0.2,3.5-1.1,7-3.5,9.6C696.1,430.8,692.8,432.1,689.4,432z M689.7,410.8
		c-1.9-0.1-3.6,0.8-4.8,2.2c-1.2,1.7-1.9,3.8-1.8,5.9c-0.1,2.1,0.5,4.2,1.8,5.9c2.1,2.6,6,2.9,8.5,0.8c0.3-0.2,0.5-0.5,0.7-0.7
		c1.2-1.7,1.9-3.8,1.7-5.9c0.1-2.2-0.5-4.3-1.7-6.1C693.2,411.6,691.5,410.7,689.7,410.8L689.7,410.8z"/>
	<path d="M730.2,430.6c-2.3,1-4.7,1.4-7.2,1.4c-3.9,0-6.9-1.1-9.1-3.4c-2.3-2.5-3.5-5.7-3.3-9.1c-0.1-3.6,1.2-7.2,3.7-9.8
		c2.6-2.5,6.1-3.9,9.7-3.8c2.1-0.1,4.2,0.3,6.2,0.9v5.5c-1.7-1-3.7-1.5-5.8-1.5c-2.1-0.1-4.2,0.7-5.7,2.2c-1.5,1.6-2.3,3.8-2.2,6
		c-0.1,2.1,0.6,4.2,2.1,5.8c1.4,1.5,3.5,2.3,5.5,2.2c2.1,0,4.2-0.5,6.1-1.6L730.2,430.6z"/>
	<path d="M762.4,431.5h-5.7v-10.3h-10.4v10.3h-5.7v-25.2h5.7v10.1h10.4v-10.1h5.7V431.5z"/>
	<path d="M773.1,430.6V425c1.9,1.6,4.4,2.5,6.9,2.6c0.6,0,1.3-0.1,1.9-0.2c0.5-0.1,0.9-0.3,1.3-0.5c0.3-0.2,0.6-0.5,0.8-0.8
		c0.2-0.3,0.3-0.7,0.3-1c0-0.5-0.1-0.9-0.4-1.3c-0.3-0.4-0.7-0.8-1.2-1.1c-0.5-0.4-1.1-0.7-1.7-1c-0.7-0.3-1.4-0.6-2.2-0.9
		c-1.7-0.6-3.2-1.7-4.4-3c-1-1.2-1.5-2.7-1.5-4.3c0-1.2,0.2-2.3,0.8-3.4c0.5-0.9,1.3-1.7,2.2-2.3c1-0.6,2-1.1,3.2-1.4
		c1.2-0.3,2.5-0.4,3.8-0.4c1.2,0,2.3,0.1,3.5,0.2c1,0.1,1.9,0.4,2.8,0.7v5.2c-0.4-0.3-0.9-0.6-1.4-0.8c-0.5-0.2-1-0.4-1.5-0.5
		c-0.5-0.1-1-0.3-1.6-0.3c-0.5-0.1-1-0.1-1.5-0.1c-0.6,0-1.2,0.1-1.8,0.2c-0.5,0.1-0.9,0.3-1.3,0.5c-0.3,0.2-0.6,0.5-0.8,0.8
		c-0.2,0.3-0.3,0.6-0.3,1c0,0.4,0.1,0.8,0.3,1.1c0.3,0.4,0.6,0.7,1,1c0.5,0.3,1,0.6,1.5,0.9c0.6,0.3,1.2,0.6,2,0.9
		c0.9,0.4,1.8,0.8,2.7,1.4c0.8,0.4,1.5,1,2.1,1.6c0.6,0.6,1,1.3,1.3,2c0.3,0.9,0.5,1.8,0.5,2.7c0,1.2-0.2,2.4-0.8,3.5
		c-0.5,0.9-1.3,1.7-2.2,2.3c-1,0.6-2.1,1-3.2,1.3c-1.3,0.3-2.5,0.4-3.8,0.4c-1.3,0-2.6-0.1-4-0.4
		C775.3,431.5,774.1,431.1,773.1,430.6z"/>
	<path d="M818.5,430.6c-2.3,1-4.7,1.4-7.2,1.3c-3.9,0-6.9-1.1-9.1-3.4c-2.3-2.5-3.5-5.7-3.3-9.1c-0.1-3.6,1.2-7.2,3.7-9.8
		c2.6-2.5,6.1-3.9,9.7-3.8c2.1-0.1,4.2,0.3,6.2,0.9v5.5c-1.7-1-3.7-1.5-5.8-1.5c-2.1-0.1-4.2,0.7-5.7,2.2c-1.5,1.6-2.3,3.8-2.2,6
		c-0.1,2.1,0.6,4.2,2.1,5.8c1.4,1.5,3.5,2.3,5.5,2.2c2.1,0,4.2-0.5,6.1-1.6V430.6z"/>
	<path d="M850.8,431.5h-5.7v-10.3h-10.4v10.3H829v-25.2h5.7v10.1h10.4v-10.1h5.7L850.8,431.5z"/>
	<path d="M883.2,420.6c0,7.6-3.5,11.4-10.6,11.4c-6.8,0-10.3-3.7-10.3-11.1v-14.6h5.7V421c0,4.1,1.6,6.1,4.8,6.1s4.7-2,4.7-5.9
		v-14.9h5.7L883.2,420.6z"/>
	<path d="M909.7,431.5h-15v-25.2h5.7v20.6h9.3L909.7,431.5z"/>
	<path d="M934.3,431.5h-15.1v-25.2h14.5v4.7h-8.9v5.6h8.2v4.6h-8.2v5.8h9.4V431.5z"/>
	<path d="M971,432c-3.3,0.1-6.5-1.2-8.8-3.5c-2.3-2.5-3.6-5.8-3.4-9.2c-0.2-3.6,1.1-7,3.5-9.7c2.4-2.5,5.7-3.8,9.2-3.7
		c3.3-0.1,6.5,1.2,8.7,3.5c2.3,2.5,3.5,5.9,3.3,9.3c0.2,3.5-1.1,7-3.5,9.6C977.7,430.8,974.4,432.1,971,432z M971.2,410.8
		c-1.9-0.1-3.6,0.8-4.8,2.2c-1.2,1.7-1.9,3.8-1.8,5.9c-0.1,2.1,0.5,4.2,1.8,5.9c1.1,1.4,2.8,2.2,4.6,2.2c1.8,0.1,3.5-0.7,4.7-2.1
		c1.2-1.7,1.9-3.8,1.7-5.9c0.1-2.2-0.5-4.3-1.7-6.1C974.7,411.6,973,410.7,971.2,410.8L971.2,410.8z"/>
	<path d="M1008.3,411h-8.9v6.2h8.2v4.6h-8.2v9.8h-5.7v-25.2h14.6V411z"/>
	<path d="M1033,411h-8.9v6.2h8.2v4.6h-8.2v9.8h-5.7v-25.2h14.6V411z"/>
	<path d="M1058.3,431.5h-15.1v-25.2h14.5v4.7h-8.9v5.6h8.2v4.6h-8.2v5.8h9.4V431.5z"/>
	<path d="M1091.1,431.5h-5.7l-10.4-15.8c-0.5-0.7-0.9-1.4-1.3-2.1h-0.1c0.1,0.9,0.1,2.2,0.1,4.1v13.9h-5.4v-25.2h6.1l10,15.4
		c0.4,0.7,0.9,1.4,1.3,2.1h0.1c-0.1-1.2-0.2-2.3-0.1-3.5v-13.9h5.4L1091.1,431.5z"/>
	<path d="M1102.9,431.5v-25.2h9.2c2.3-0.1,4.5,0.4,6.5,1.5c1.5,1,2.3,2.6,2.3,4.4c0,1.3-0.5,2.6-1.4,3.6c-0.9,1-2.2,1.8-3.5,2.1v0.1
		c1.6,0.1,3.1,0.9,4.3,2c1.1,1.1,1.6,2.5,1.6,4c0.1,2.1-0.8,4.2-2.5,5.5c-2,1.4-4.3,2.1-6.8,2L1102.9,431.5z M1108.6,410.5v6h2.5
		c1,0.1,2-0.2,2.8-0.9c0.7-0.6,1-1.5,1-2.4c0-1.9-1.4-2.8-4.2-2.8L1108.6,410.5z M1108.6,420.7v6.6h3.1c1.1,0.1,2.2-0.3,3.1-0.9
		c0.7-0.6,1.2-1.5,1.1-2.5c0-0.9-0.4-1.8-1.1-2.4c-0.9-0.6-2-0.9-3.1-0.9H1108.6z"/>
	<path d="M1152.6,420.6c0,7.6-3.5,11.4-10.6,11.4c-6.8,0-10.3-3.7-10.3-11.1v-14.6h5.7V421c0,4.1,1.6,6.1,4.8,6.1s4.7-2,4.7-5.9
		v-14.9h5.7L1152.6,420.6z"/>
	<path d="M1185.3,431.5h-6.5l-3.9-6.5c-0.3-0.5-0.6-0.9-0.8-1.3c-0.2-0.4-0.5-0.7-0.8-1c-0.3-0.3-0.5-0.5-0.9-0.6
		c-0.3-0.2-0.7-0.2-1-0.2h-1.5v9.6h-5.7v-25.2h9c6.1,0,9.2,2.3,9.2,6.9c0,0.8-0.1,1.6-0.4,2.4c-0.3,0.7-0.6,1.4-1.1,2
		c-0.5,0.6-1.1,1.1-1.8,1.5c-0.7,0.4-1.5,0.8-2.3,1v0.1c0.4,0.1,0.8,0.3,1.1,0.6c0.4,0.3,0.7,0.6,1,0.9c0.3,0.4,0.6,0.7,0.9,1.1
		c0.3,0.4,0.6,0.8,0.8,1.2L1185.3,431.5z M1169.8,410.6v7h2.5c1.1,0.1,2.1-0.3,2.9-1c0.7-0.7,1.1-1.7,1.1-2.7c0-2.2-1.3-3.3-4-3.3
		L1169.8,410.6z"/>
	<path d="M1214,429.9c-2.8,1.5-6,2.2-9.2,2.1c-4.1,0-7.2-1.1-9.6-3.4s-3.5-5.3-3.5-9.3c-0.1-3.6,1.3-7.1,3.8-9.7
		c2.6-2.5,5.9-3.8,10.2-3.8c2.4,0,4.8,0.3,7.1,1.1v5.3c-2.2-1.2-4.7-1.8-7.1-1.7c-2.2-0.1-4.2,0.8-5.8,2.3c-2.9,3.5-3,8.5-0.2,12.1
		c1.4,1.5,3.4,2.2,5.4,2.1c1.1,0,2.2-0.2,3.2-0.6v-4.9h-5v-4.5h10.7V429.9z"/>
</g>
<g id="Formula">
	<path class="st0" d="M676.3,334.5h-19v13.2h17.5v9.9h-17.5v20.9h-12.2v-53.9h31.2V334.5z"/>
	<path class="st0" d="M741.7,379.5c-7.7,0-14-2.5-18.9-7.5s-7.3-11.6-7.3-19.6c0-8.5,2.5-15.4,7.4-20.7c4.9-5.3,11.5-7.9,19.6-7.9
		c7.7,0,13.9,2.5,18.7,7.6c4.8,5,7.1,11.7,7.1,19.9c0,8.5-2.5,15.3-7.4,20.5C756,376.9,749.6,379.5,741.7,379.5z M742.2,334.2
		c-4-0.1-7.7,1.6-10.2,4.8c-2.5,3.2-3.8,7.4-3.8,12.7c0,5.3,1.3,9.5,3.8,12.7c4.6,5.5,12.8,6.2,18.3,1.6c0.5-0.5,1-0.9,1.5-1.5
		c2.5-3,3.7-7.2,3.7-12.6c0-5.6-1.2-9.9-3.6-13C749.7,335.8,746,334.1,742.2,334.2z"/>
	<path class="st0" d="M856.2,378.6h-14l-8.4-13.9c-0.6-1.1-1.2-2-1.8-2.8c-0.5-0.8-1.1-1.5-1.8-2.1c-0.5-0.5-1.2-1-1.8-1.4
		c-0.7-0.3-1.4-0.5-2.1-0.5h-3.3v20.6H811v-53.9h19.2c13.1,0,19.6,4.9,19.6,14.7c0,1.8-0.3,3.5-0.9,5.2c-0.6,1.6-1.4,3-2.5,4.3
		c-1.1,1.3-2.4,2.4-3.8,3.3c-1.6,1-3.2,1.7-5,2.2v0.1c0.8,0.3,1.6,0.7,2.3,1.2c0.8,0.6,1.5,1.3,2.2,2c0.7,0.8,1.4,1.6,2,2.4
		c0.6,0.9,1.2,1.7,1.8,2.5L856.2,378.6z M823.1,333.8v15h5.3c2.3,0.1,4.6-0.7,6.3-2.2c1.6-1.5,2.5-3.5,2.4-5.7
		c0-4.7-2.8-7.1-8.5-7.1H823.1z"/>
	<path class="st0" d="M956.4,378.6h-12v-32.3c0-3.5,0.2-7.3,0.5-11.5h-0.3c-0.4,2.4-1,4.8-1.7,7.1l-12.6,36.7h-9.9l-12.9-36.3
		c-0.7-2.5-1.3-5-1.7-7.5h-0.3c0.3,5.3,0.5,10,0.5,14v29.8H895v-53.9h17.8l11,32c0.9,2.5,1.5,5.1,1.9,7.7h0.2
		c0.6-2.6,1.3-5.2,2.2-7.8l11-31.9h17.3L956.4,378.6z"/>
	<path class="st0" d="M1046.4,355.2c0,16.2-7.5,24.3-22.6,24.3c-14.7,0-22-7.9-22-23.7v-31.1h12.3V356c0,8.7,3.4,13.1,10.2,13.1
		c6.7,0,10-4.2,10-12.6v-31.8h12.2L1046.4,355.2z"/>
	<path class="st0" d="M1123.9,378.6h-32.1v-53.9h12.2v44.1h20L1123.9,378.6z"/>
	<path class="st0" d="M1214,378.6h-13.2l-3.8-12h-19.2l-3.8,12h-13.2l19.6-53.9h14.4L1214,378.6z M1194.2,357.3l-5.8-18.1
		c-0.5-1.6-0.8-3.2-0.9-4.9h-0.3c-0.1,1.6-0.4,3.2-0.9,4.7l-5.9,18.3H1194.2z"/>
</g>
<g id="Black_Forest">
	<path d="M645.1,295.2v-53.9h19.6c6,0,10.6,1.1,13.9,3.3c3.1,2,5,5.6,4.8,9.3c0,2.8-1.1,5.6-3,7.6c-2,2.2-4.6,3.8-7.5,4.5v0.1
		c3.5,0.3,6.7,1.8,9.2,4.2c2.3,2.3,3.5,5.4,3.4,8.6c0.2,4.5-1.8,8.9-5.3,11.8c-3.5,2.9-8.3,4.3-14.5,4.3L645.1,295.2z M657.3,250.2
		V263h5.3c2.1,0.1,4.2-0.5,5.9-1.8c1.5-1.2,2.2-3.1,2.2-5c0-4-3-5.9-8.9-5.9L657.3,250.2z M657.3,272v14.2h6.6
		c2.4,0.1,4.7-0.6,6.6-2c1.6-1.3,2.5-3.3,2.4-5.3c0.1-2-0.8-3.9-2.3-5.1c-1.9-1.3-4.2-2-6.6-1.8L657.3,272z"/>
	<path d="M729.8,295.2h-32.1v-53.9h12.2v44.1h20L729.8,295.2z"/>
	<path d="M789.4,295.2h-13.2l-3.8-12h-19.2l-3.8,12h-13.2l19.6-53.9h14.4L789.4,295.2z M769.6,273.9l-5.8-18.1
		c-0.5-1.6-0.8-3.2-0.9-4.9h-0.3c-0.1,1.6-0.4,3.2-0.9,4.7l-5.9,18.3H769.6z"/>
	<path d="M836.9,293.3c-3.9,1.9-9.1,2.9-15.4,2.9c-8.3,0-14.8-2.4-19.5-7.3s-7.1-11.3-7.1-19.4c0-8.6,2.7-15.6,8-21
		c5.3-5.4,12.2-8,20.7-8c4.5-0.1,9,0.6,13.3,2v11.7c-3.7-2.2-8-3.3-12.3-3.2c-5.1,0-9.1,1.6-12.3,4.8c-3.1,3.2-4.7,7.5-4.7,12.9
		c0,5.2,1.5,9.4,4.4,12.5s6.9,4.6,11.8,4.6c4.6,0,9.1-1.2,13-3.5L836.9,293.3z"/>
	<path d="M894.3,295.2H879l-15.7-23.4c-0.6-1-1-2-1.4-3h-0.2v26.4h-12.2v-53.9h12.1v25.5h0.2c0.3-0.7,0.8-1.7,1.5-3l14.9-22.5h14.5
		L873.9,267L894.3,295.2z"/>
	<path d="M958.3,251.1h-19v13.2h17.5v9.9h-17.5v20.9h-12.2v-53.9h31.2V251.1z"/>
	<path d="M993.2,296.1c-7.7,0-14-2.5-18.9-7.5s-7.3-11.6-7.3-19.6c0-8.5,2.5-15.4,7.4-20.7c4.9-5.3,11.5-7.9,19.6-7.9
		c7.7,0,13.9,2.5,18.7,7.6c4.8,5,7.1,11.7,7.1,19.9c0,8.5-2.5,15.3-7.4,20.5C1007.6,293.5,1001.2,296.1,993.2,296.1z M993.8,250.8
		c-4-0.1-7.7,1.6-10.2,4.8c-2.5,3.2-3.8,7.4-3.8,12.7c0,5.3,1.3,9.5,3.8,12.7c4.6,5.5,12.8,6.2,18.3,1.6c0.5-0.5,1-0.9,1.5-1.5
		c2.5-3,3.7-7.2,3.7-12.6c0-5.6-1.2-9.9-3.6-13C1001.3,252.5,997.6,250.7,993.8,250.8z"/>
	<path d="M1077.3,295.2h-14l-8.3-13.9c-0.6-1-1.2-2-1.8-2.8c-0.5-0.8-1.1-1.5-1.7-2.1c-0.5-0.6-1.2-1-1.8-1.4
		c-0.6-0.3-1.4-0.5-2.1-0.5h-3.3v20.6h-12.2v-53.9h19.2c13.1,0,19.6,4.9,19.6,14.7c0,1.8-0.3,3.5-0.9,5.2c-0.6,1.6-1.4,3-2.4,4.3
		c-1.1,1.3-2.4,2.4-3.8,3.3c-1.6,1-3.2,1.7-5,2.2v0.1c0.8,0.3,1.6,0.7,2.3,1.2c0.8,0.6,1.5,1.3,2.2,2c0.7,0.8,1.4,1.6,2,2.4
		c0.6,0.9,1.2,1.7,1.7,2.5L1077.3,295.2z M1044.2,250.4v15h5.3c2.3,0.1,4.6-0.7,6.3-2.2c1.6-1.5,2.5-3.5,2.4-5.7
		c0-4.7-2.8-7.1-8.5-7.1H1044.2z"/>
	<path d="M1117.9,295.2h-32.3v-53.9h31.1v9.9h-19v12h17.6v9.9h-17.6v12.3h20.2L1117.9,295.2z"/>
	<path d="M1127.3,293.1v-12c2.1,1.8,4.5,3.2,7.1,4.1c2.5,0.9,5.1,1.4,7.7,1.4c1.3,0,2.7-0.1,4-0.4c1-0.2,2-0.6,2.8-1.2
		c0.7-0.4,1.3-1,1.7-1.7c0.4-0.7,0.6-1.4,0.6-2.2c0-1-0.3-2-0.9-2.8c-0.7-0.9-1.5-1.7-2.5-2.3c-1.2-0.8-2.4-1.4-3.7-2
		c-1.4-0.7-3-1.3-4.6-2c-3.6-1.3-6.8-3.5-9.4-6.4c-2.1-2.6-3.2-5.8-3.1-9.2c-0.1-2.5,0.5-5,1.7-7.2c1.1-2,2.7-3.7,4.6-5
		c2.1-1.4,4.3-2.3,6.8-2.9c2.7-0.6,5.4-0.9,8.1-0.9c2.5,0,5,0.1,7.5,0.5c2,0.3,4.1,0.8,6,1.6v11.2c-0.9-0.6-1.9-1.2-3-1.6
		c-1.1-0.5-2.2-0.9-3.3-1.2c-1.1-0.3-2.2-0.5-3.4-0.7c-1.1-0.1-2.1-0.2-3.2-0.2c-1.3,0-2.5,0.1-3.8,0.4c-1,0.2-2,0.6-2.9,1.1
		c-0.7,0.4-1.3,1-1.8,1.7c-0.4,0.7-0.7,1.4-0.6,2.2c0,0.9,0.2,1.7,0.7,2.4c0.5,0.8,1.2,1.5,2,2c1,0.7,2.1,1.3,3.2,1.9
		c1.3,0.6,2.7,1.2,4.2,1.9c2,0.8,3.9,1.8,5.8,2.9c1.6,0.9,3.1,2.1,4.4,3.4c1.2,1.3,2.2,2.7,2.8,4.4c0.7,1.8,1,3.8,1,5.7
		c0.1,2.6-0.5,5.2-1.7,7.6c-1.1,2-2.7,3.7-4.6,5c-2.1,1.3-4.4,2.2-6.8,2.7c-2.7,0.6-5.5,0.8-8.2,0.8c-2.8,0-5.7-0.2-8.4-0.8
		C1131.8,294.9,1129.5,294.2,1127.3,293.1z"/>
	<path d="M1214.1,251.1h-15.4v44h-12.2v-44h-15.3v-9.9h42.9L1214.1,251.1z"/>
</g>
<g id="Icon">
	<path d="M351.1,188.2l-2.9-21.8c-4.1,6.4-8.1,13.1-12,20L351.1,188.2z"/>
	<path d="M309.2,260.8l-2.4-10.6c-0.7,1.8-1.3,3.6-2,5.4L309.2,260.8z"/>
	<path d="M284.3,330.7l43.5,13.5L313,278l-12.6-9.5C293.8,288.9,288.4,309.7,284.3,330.7z"/>
	<path d="M96.6,308.4c3.7-15,7.9-29.6,12.7-44l-0.3,0.1l-71.3,79.7l46.7-12.7l8.4-6.4C93.9,319.5,95.2,313.9,96.6,308.4z"/>
	<path d="M147,178.7c2.7-4.8,5.5-9.6,8.3-14.3L129,179.4L147,178.7L147,178.7z"/>
	<path d="M284.3,330.7l-8.6-2.7l14.6,22.3l51.7,36.2L284.3,330.7z"/>
	<path d="M147,178.7l-1.1,0.6l-77.5,44.1l68.7-26.1c-8.4,16.8-15.9,34-22.4,51.7l-79.1,41.5l73.4-26.1l14.4-16.1l1.2-1.3l1.1-1.2
		c6.7-17.6,14.5-34.8,23.2-51.5l13.7,10.3l5.1-5.8l-13-15.5c1-1.7,1.9-3.4,2.9-5.1L147,178.7C146.9,178.9,146.9,178.8,147,178.7z"/>
	<path d="M147,178.7L147,178.7C147.1,178.5,147,178.6,147,178.7z"/>
	<path d="M27,372.4l62.8-32.3c-0.2,1.3-0.5,2.6-0.7,3.9l13.2-19.4l-17.9,6.9L27,372.4z"/>
	<polygon points="357.5,314.8 309.2,260.8 313,278 	"/>
	<path d="M367.8,49.3h-15.5l-8,6l-9.8,7.4l1.3,9.5c7.3-6.1,14.8-11.7,22.5-16.9L367.8,49.3z"/>
	<path d="M207.8,436.8l57.4-29.7c1.5-21.5,4-42.9,7.7-64.2l-74.2,37.7l77-52.7c0,0,9.4-40.9,15.8-60.9L214.9,308l82-56.8
		c1.5-4.2,3.1-8.5,4.8-12.6c0.5-1.4,1.1-2.8,1.7-4.1l-5.3-23.5L242,241.5l54.8-36.2l-5.5-24.5l34.3,4.2l0.8,0.1
		c5.9-10.5,13.4-22.8,19.9-32.5l-2.3-17.4l-68.2,34.3l67.5-39.8l-7.6-57.4c-9.6,7.9-18.8,16.4-27.5,25.3
		c-26.2,26.8-49.2,58.8-68.3,94.9c-19.9,37.9-34.9,78.1-44.8,119.7C184.4,356.9,179,404,179,449.9h84.6c0.1-9.1,0.3-19.1,0.8-27.9
		L207.8,436.8z"/>
	<path d="M281.7,345.3c-3.3,19.6-5.8,40.2-7.3,62l0.1-0.2l55.8,36.4l-56.7-23c-0.4,9.2-0.7,19.7-0.8,29.3h88.9l-71.4-99.6
		L281.7,345.3z"/>
	<path d="M701.5,0C696,0,335,0,329.9,0c-36.2,0.6-72,8.8-104.9,23.9c-32.5,14.9-63,36.4-90.7,63.9c-27.3,27.2-51.2,59.6-71.2,96.4
		C42.6,222.6,27,263.5,16.7,305.8C6,349.2,0.1,401,0,449.9h79.8c0-10.3,0.3-20.8,0.8-31.1l-60.6,28l61.5-42.5
		c1.5-20.2,4-40.4,7.6-60.3L9.3,439.3v0c0.8-45.3,6.5-91.6,16.3-131.6C35.7,266,51.1,225.8,71.4,188c19.5-36.1,43-67.9,69.7-94.4
		c26.9-26.8,56.5-47.7,88-62.1c30.6-14,63.6-21.3,97.3-22.4h100.9h10.8c-11.5,3.1-22.8,6.9-33.8,11.5l-20.5,9.5
		c-1.1,0.6-2.2,1.2-3.3,1.8h19.5c0.5-0.2,0.9-0.4,1.4-0.6l27.9-10.6c20.2-6.4,41.1-10.2,62.3-11.2l114.4,0.4
		c-2.5,0.7-4.9,1.4-7.4,2.1l-1.6,0.5c-1.9,0.6-3.7,1.2-5.6,1.8c-2.2,0.7-4.3,1.5-6.5,2.3l-0.9,0.3c-8.1,3-16,6.4-23.8,10.2l-0.6,0.3
		c-1.5,0.8-3.1,1.6-4.6,2.3c-1.5,0.8-3,1.6-4.5,2.4l-1.8,1c-2.5,1.4-4.8,2.8-7.2,4.2c-37.3,22.5-70,55.1-97.3,96.8
		c-53.1,81.2-82.3,193.6-82.4,315.8h12.8V446c0-123.5,26.9-229.5,77.8-306.5C504.5,60.6,579.6,15.6,669.6,9.3
		c58.8-4.1,119.9,11.7,171.9,44.4c55.8,35.1,98.7,84.7,124.2,148.6l1.5,3.8l6.6-0.1C937.7,110.2,837.7,0,701.5,0z"/>
	<path d="M231.7,188.8c19.5-36.9,43-69.5,69.7-96.9c9.4-9.6,22.7-20.7,33.1-29.2l-116.1,65.9l19.9,29.1l-25.2-26.2L171.9,155
		c-5,7.5-9.8,15.3-14.4,23.4l29.4-1.1l-19.4,21.6l33.3,35.5l-38.4-29.8l-36.9,41.2c-0.2,0.5-0.6,1-1.1,1.2l-1.2,1.3l42,61.3
		L119.7,262c-5.4,15.7-10.2,31.7-14.2,48.2c-1.2,4.8-2.2,9.5-3.3,14.3l1.7,1.6h0.1l-0.1,0.1l45.8,55.2l-50.3-43.6
		c-4.1,22.2-7.1,44.7-9,67.2l55.2,31.4l-56.2-18.2c-0.7,11.9-0.5,19.7-0.5,31.7h80.8c0-46.6,5.5-94.2,16.3-139.5
		C196.2,268.1,211.5,227.3,231.7,188.8z"/>
	<path d="M499,30.1c8.4-3.6,17-6.8,25.8-9.5h-25.4c-6.9,2.9-13.8,6-20.7,9.5l-3,1.7l21.2-0.7L499,30.1z"/>
	<path d="M440.2,64.7l15.1-10.8c2.4-1.6,4.7-3.1,7.1-4.6h-15.9c-2.2,1.5-4.4,3-6.5,4.6l-13.9,10.8c-0.8,0.6-1.5,1.3-2.2,1.9h13.9
		C438.6,65.9,439.4,65.3,440.2,64.7z"/>
	<path d="M378.9,124.2l40.5,37.7l-29.2-50.7c6.6-7.5,13.6-14.7,21-21.5l6.6-6h-13l-6.3,6c-5.7,5.6-11.8,10.4-17.1,16.3l-37.8,23.6
		l0.7,5.5l21.4-8.8c-6.7,8.4-13,17.2-19.1,26.2l1.8,13.7C357.6,151.7,367.8,137.6,378.9,124.2z"/>
	<path d="M206.4,109.8c4.8-5.5,9.8-10.7,14.9-15.8c1.4-1.4,2.9-2.8,4.3-4.2l6.5-6h-12.9l-6.2,6c-4.2,4.3-8.3,8.6-12.3,13.1
		l-84.6,44.3l67.2-23.5c-10.1,13-19.5,26.7-28.1,40.8l16.6-9.4c8.3-12.6,17.3-24.8,26.9-36.4l14.2,13.1l5.3-3l-11.8-18.6
		L206.4,109.8z"/>
	<path d="M254.7,64.7l15-10.8c2.3-1.6,4.7-3.1,7-4.6h-15.7c-2.2,1.5-4.3,3-6.4,4.6l-13.9,10.8c-0.8,0.6-1.5,1.3-2.2,1.9h14
		C253.1,65.9,253.9,65.3,254.7,64.7z"/>
	<path d="M337.4,20.6h-24.6c-2.5,1-5,2.1-7.5,3.3c-4.8,2.2-9.5,4.6-14.2,7l-1.7,1l20.6-0.6C318.9,27.2,328.1,23.6,337.4,20.6z"/>
	<path d="M328.8,200.2l58,47.1l-50.6-60.9l0,0l-9.8-1.2l-0.8-0.1l-28.9,20.2l1.3,5.7l19.7-8.8c-5.2,10.5-10,21.2-14.5,32.3l3.5,15.8
		C313.1,233.1,320.5,216.4,328.8,200.2z"/>
	<path d="M421.9,449.9c0.5-20.8,1.5-41.8,3.8-62.5s5.4-41.2,9.7-61.6c4.4-20.4,9.9-40.6,16.5-60.4c6.7-20,14.7-39.5,24.2-58.3
		c9.5-19.1,20.7-37.3,33.3-54.5c12.8-17.6,27.5-33.6,43.9-47.9c16.6-14.3,35.2-27,55.9-36.1c10.3-4.7,21.1-8.4,32.1-11.1l8.3-1.8
		c1.4-0.3,2.8-0.5,4.2-0.7l4.2-0.6l4.2-0.6c1.4-0.2,2.8-0.2,4.3-0.4l8.5-0.6l-8.5,0.9c-1.4,0.2-2.8,0.2-4.2,0.5l-4.2,0.7l-4.2,0.7
		c-1.4,0.2-2.8,0.5-4.2,0.8l-8.2,2c-10.8,2.9-21.4,6.9-31.5,11.8c-20.2,9.5-38.1,22.5-54.1,37c-15.7,14.5-29.7,30.6-41.8,48.2
		c-11.9,17.2-22.3,35.4-31.1,54.4c-8.7,18.8-16.1,38.1-22,57.9c-5.9,19.7-10.7,39.6-14.4,59.8c-3.6,20.2-6,40.5-7.7,60.8
		s-2,41.1-1.8,61.5L421.9,449.9z"/>
	<path d="M905.8,206.3c-25.1-53.7-56.1-88-94.7-110.8C776.1,74.7,735.4,66.4,686.8,70c-32.7,2.5-64,13.8-92.4,33.2
		c-6.7,4.4-13.1,9.2-19.2,14.3c-15.8,13.5-30,28.8-42.3,45.5c-12.1,16.5-22.8,33.9-32,52.2c-9.1,18.1-16.9,36.8-23.5,55.9
		c-1.6,4.8-3.2,9.5-4.7,14.4l-4.3,14.5l-3.8,14.6c-0.7,2.4-1.2,4.9-1.8,7.3l-1.7,7.3c-4.3,19.6-7.6,39.4-9.9,59.3
		c-2.2,19.9-3.5,41.3-4,61.3h9.2c0.1-19.8,1.1-40.9,2.9-60.6c1.9-19.7,4.8-39.4,8.6-58.8l1.5-7.3c0.5-2.4,1-4.9,1.6-7.3l3.5-14.5
		l4-14.4c1.4-4.8,2.9-9.5,4.4-14.3c6.1-19,13.5-37.7,22.1-55.7c8.7-18.2,19-35.7,30.7-52.2c11.9-16.8,25.6-32.1,41-45.8
		c4.3-3.8,8.8-7.4,13.4-10.7c14.5,18.7,27.1,38.8,37.4,60.1c6.5,13.4,12.3,27.1,17.4,41l261.3-2.7L905.8,206.3z"/>
</g>
</svg>
